# File created by Blade
# Date/Time:  Fri Jan 16 19:18:57 2015
# Frame Rate: 120.000 fps
#------------------------------------------------------
:FULLY-SPECIFIED
:DEGREES
1037
root 19.883431 35.628890 -21.372253 -169.090533 -0.957766 -179.223191
Spine -20.178808 -0.687506 0.296017
Head 8.493635 -1.443106 1.855496
LeftShoulder -13.996453 -30.300703 19.220285
LeftArm -3.832384 -0.647410 -9.664089
LeftForeArm 14.340626 0.000000 -2.112395
LeftHand -3.316399 -0.000000 -2.140482
LeftHandThumb1 -26.253704 0.000000 33.147579
RightShoulder -12.288608 -3.561746 -7.375376
RightArm -1.758236 42.888699 14.036046
RightForeArm -35.892628 -0.000000 7.246193
RightHand -5.467555 0.000000 0.609524
RightHandThumb1 -24.326973 -0.000000 -32.862282
LeftUpLeg -3.571665 9.494121 -0.622590
LeftLeg -6.575359 -0.000000 0.000000
LeftFoot -18.858249 26.100529 -12.615504
LeftToeBase 26.323498 -0.000000 -0.000000
RightUpLeg -4.178547 -6.059400 0.690033
RightLeg -3.295675 -0.000000 0.000000
RightFoot -20.124323 -25.372674 14.794035
RightToeBase 23.850238 -0.000000 -0.000000
1038
root 19.881863 35.628495 -21.376914 -169.089436 -0.953111 -179.224425
Spine -20.190857 -0.682853 0.316639
Head 8.531520 -1.451035 1.841755
LeftShoulder -14.009867 -30.295667 19.226969
LeftArm -3.836972 -0.689721 -9.649659
LeftForeArm 14.204010 0.000000 -2.100931
LeftHand -3.343304 -0.000000 -2.181748
LeftHandThumb1 -26.253704 0.000000 33.147579
RightShoulder -12.324799 -3.608470 -7.353133
RightArm -1.623682 42.931329 14.129503
RightForeArm -35.925909 -0.000000 7.213425
RightHand -5.486966 0.000000 0.570572
RightHandThumb1 -24.326973 -0.000000 -32.862282
LeftUpLeg -3.564330 9.470823 -0.616381
LeftLeg -6.561702 -0.000000 0.000000
LeftFoot -18.879443 26.078320 -12.629136
LeftToeBase 26.280793 -0.000000 -0.000000
RightUpLeg -4.174214 -6.072894 0.688572
RightLeg -3.293633 -0.000000 0.000000
RightFoot -20.140100 -25.396209 14.817484
RightToeBase 23.791767 -0.000000 -0.000000
1039
root 19.880127 35.627957 -21.382184 -169.092385 -0.947437 -179.230449
Spine -20.200102 -0.685109 0.331849
Head 8.572209 -1.442499 1.831320
LeftShoulder -14.024655 -30.291272 19.241712
LeftArm -3.841297 -0.757059 -9.636172
LeftForeArm 14.127180 0.000000 -2.086752
LeftHand -3.359111 -0.000000 -2.152676
LeftHandThumb1 -26.253704 0.000000 33.147579
RightShoulder -12.334063 -3.632182 -7.335923
RightArm -1.551243 42.918416 14.172343
RightForeArm -35.958679 0.000000 7.236250
RightHand -5.477090 -0.000000 0.613659
RightHandThumb1 -24.326973 -0.000000 -32.862282
LeftUpLeg -3.559111 9.476479 -0.623684
LeftLeg -6.545215 -0.000000 0.000000
LeftFoot -18.897717 26.074216 -12.630389
LeftToeBase 26.306915 -0.000000 -0.000000
RightUpLeg -4.162719 -6.083732 0.679712
RightLeg -3.293657 -0.000000 0.000000
RightFoot -20.141520 -25.336688 14.797288
RightToeBase 23.859032 -0.000000 -0.000000
1040
root 19.877522 35.627482 -21.385945 -169.090129 -0.930089 -179.237123
Spine -20.216346 -0.674867 0.346594
Head 8.613305 -1.460554 1.817686
LeftShoulder -14.030953 -30.298187 19.252985
LeftArm -3.847346 -0.790189 -9.614556
LeftForeArm 14.072119 -0.000000 -2.062623
LeftHand -3.390154 0.000000 -2.173047
LeftHandThumb1 -26.253704 0.000000 33.147579
RightShoulder -12.309483 -3.621326 -7.333847
RightArm -1.569306 42.714899 14.175745
RightForeArm -35.882311 -0.000000 7.359980
RightHand -5.563999 -0.000000 0.654510
RightHandThumb1 -24.326973 -0.000000 -32.862282
LeftUpLeg -3.555852 9.485464 -0.642464
LeftLeg -6.552568 -0.000000 0.000000
LeftFoot -18.915635 26.127989 -12.652549
LeftToeBase 26.316941 -0.000000 -0.000000
RightUpLeg -4.164610 -6.061387 0.665237
RightLeg -3.284683 -0.000000 0.000000
RightFoot -20.146798 -25.350797 14.796388
RightToeBase 23.802810 -0.000000 -0.000000
1041
root 19.874648 35.626796 -21.390415 -169.091245 -0.908374 -179.237580
Spine -20.226121 -0.658717 0.372946
Head 8.650112 -1.451574 1.793441
LeftShoulder -14.045415 -30.287304 19.249593
LeftArm -3.812951 -0.800799 -9.595464
LeftForeArm 14.020249 -0.000000 -2.050926
LeftHand -3.490307 0.000000 -2.069266
LeftHandThumb1 -26.253704 0.000000 33.147579
RightShoulder -12.349595 -3.682012 -7.334526
RightArm -1.349170 42.872576 14.294561
RightForeArm -36.059999 -0.000000 7.269395
RightHand -5.488545 -0.000000 0.600026
RightHandThumb1 -24.326973 -0.000000 -32.862282
LeftUpLeg -3.545393 9.502494 -0.649775
LeftLeg -6.552237 -0.000000 0.000000
LeftFoot -18.922322 26.138162 -12.636528
LeftToeBase 26.323718 -0.000000 -0.000000
RightUpLeg -4.162958 -6.050929 0.657650
RightLeg -3.278193 -0.000000 0.000000
RightFoot -20.147939 -25.356603 14.740236
RightToeBase 23.896658 -0.000000 -0.000000
1042
root 19.872773 35.626070 -21.395144 -169.095063 -0.906715 -179.243555
Spine -20.234857 -0.651433 0.383223
Head 8.684936 -1.483349 1.784744
LeftShoulder -14.053167 -30.293543 19.265440
LeftArm -3.763947 -0.823571 -9.585388
LeftForeArm 14.039347 -0.000000 -2.051909
LeftHand -3.472391 -0.000000 -1.990334
LeftHandThumb1 -26.253704 0.000000 33.147579
RightShoulder -12.361534 -3.708265 -7.336515
RightArm -1.250140 42.866341 14.351708
RightForeArm -36.078450 -0.000000 7.280034
RightHand -5.484281 0.000000 0.517629
RightHandThumb1 -24.326973 -0.000000 -32.862282
LeftUpLeg -3.537227 9.475925 -0.652788
LeftLeg -6.539537 -0.000000 0.000000
LeftFoot -18.935137 26.147125 -12.645543
LeftToeBase 26.286508 -0.000000 -0.000000
RightUpLeg -4.149475 -6.060590 0.649904
RightLeg -3.280768 -0.000000 0.000000
RightFoot -20.151349 -25.390777 14.746997
RightToeBase 23.762420 -0.000000 -0.000000
1043
root 19.871248 35.625591 -21.399585 -169.107092 -0.896490 -179.241693
Spine -20.233871 -0.635180 0.400248
Head 8.718680 -1.496904 1.779126
LeftShoulder -14.042872 -30.281781 19.260131
LeftArm -3.732550 -0.863680 -9.556821
LeftForeArm 14.111318 -0.000000 -2.013323
LeftHand -3.443968 -0.000000 -1.951240
LeftHandThumb1 -26.253704 0.000000 33.147579
RightShoulder -12.365509 -3.752653 -7.328027
RightArm -1.137300 42.832664 14.399018
RightForeArm -36.088800 -0.000000 7.314888
RightHand -5.565229 -0.000000 0.491444
RightHandThumb1 -24.326973 -0.000000 -32.862282
LeftUpLeg -3.524577 9.461311 -0.642312
LeftLeg -6.508927 -0.000000 0.000000
LeftFoot -18.965864 26.117510 -12.641103
LeftToeBase 26.291219 -0.000000 -0.000000
RightUpLeg -4.130423 -6.049917 0.646752
RightLeg -3.286853 -0.000000 0.000000
RightFoot -20.145865 -25.337911 14.808556
RightToeBase 23.706035 -0.000000 -0.000000
1044
root 19.868372 35.624853 -21.404344 -169.111277 -0.874466 -179.247769
Spine -20.239065 -0.611133 0.414372
Head 8.734402 -1.545043 1.757601
LeftShoulder -14.041352 -30.286971 19.255727
LeftArm -3.680547 -0.796842 -9.531964
LeftForeArm 14.158238 -0.000000 -1.990080
LeftHand -3.519891 -0.000000 -1.843876
LeftHandThumb1 -26.253704 0.000000 33.147579
RightShoulder -12.362188 -3.754714 -7.340370
RightArm -1.056598 42.794132 14.423157
RightForeArm -36.145778 -0.000000 7.352707
RightHand -5.534142 0.000000 0.448919
RightHandThumb1 -24.326973 -0.000000 -32.862282
LeftUpLeg -3.511154 9.469154 -0.651543
LeftLeg -6.499744 -0.000000 0.000000
LeftFoot -18.995925 26.117885 -12.660078
LeftToeBase 26.108419 -0.000000 -0.000000
RightUpLeg -4.124696 -6.035878 0.632980
RightLeg -3.279497 -0.000000 0.000000
RightFoot -20.158256 -25.362394 14.722190
RightToeBase 23.891072 -0.000000 -0.000000
1045
root 19.866632 35.624653 -21.407988 -169.119033 -0.856244 -179.248053
Spine -20.235697 -0.602287 0.433873
Head 8.737638 -1.526221 1.765245
LeftShoulder -14.059146 -30.255095 19.257950
LeftArm -3.600897 -0.724313 -9.523709
LeftForeArm 14.110870 -0.000000 -1.974453
LeftHand -3.580845 -0.000000 -1.740192
LeftHandThumb1 -26.253704 0.000000 33.147579
RightShoulder -12.350529 -3.779280 -7.335432
RightArm -0.958492 42.770521 14.435879
RightForeArm -36.130347 -0.000000 7.403584
RightHand -5.606264 0.000000 0.439210
RightHandThumb1 -24.326973 -0.000000 -32.862282
LeftUpLeg -3.498443 9.466273 -0.653210
LeftLeg -6.496910 -0.000000 0.000000
LeftFoot -19.001539 26.134168 -12.672500
LeftToeBase 26.238956 -0.000000 -0.000000
RightUpLeg -4.115618 -6.016390 0.625002
RightLeg -3.272331 -0.000000 0.000000
RightFoot -20.167163 -25.391901 14.751464
RightToeBase 23.778888 -0.000000 -0.000000
1046
root 19.864006 35.623921 -21.412277 -169.130950 -0.836907 -179.246953
Spine -20.233802 -0.583786 0.458694
Head 8.758762 -1.515548 1.750542
LeftShoulder -14.055837 -30.205918 19.251925
LeftArm -3.548563 -0.684262 -9.515007
LeftForeArm 14.087036 -0.000000 -1.919057
LeftHand -3.596990 -0.000000 -1.657141
LeftHandThumb1 -26.253704 0.000000 33.147579
RightShoulder -12.279075 -3.722538 -7.405535
RightArm -1.011043 42.672190 14.425642
RightForeArm -36.175437 -0.000000 7.516447
RightHand -5.586210 -0.000000 0.447333
RightHandThumb1 -24.326973 -0.000000 -32.862282
LeftUpLeg -3.475530 9.464640 -0.659690
LeftLeg -6.511421 -0.000000 0.000000
LeftFoot -18.967581 26.209980 -12.629676
LeftToeBase 26.188951 -0.000000 -0.000000
RightUpLeg -4.099551 -5.988771 0.616049
RightLeg -3.268933 -0.000000 0.000000
RightFoot -20.179339 -25.412556 14.749392
RightToeBase 23.757742 -0.000000 -0.000000
1047
root 19.862143 35.623594 -21.415866 -169.138243 -0.815238 -179.250046
Spine -20.235198 -0.557735 0.458342
Head 8.777363 -1.559581 1.738074
LeftShoulder -14.028065 -30.213718 19.268512
LeftArm -3.533024 -0.639096 -9.495801
LeftForeArm 14.145226 0.000000 -1.837242
LeftHand -3.545047 0.000000 -1.646203
LeftHandThumb1 -26.253704 0.000000 33.147579
RightShoulder -12.287220 -3.765435 -7.384519
RightArm -0.844981 42.631628 14.457554
RightForeArm -36.132366 -0.000000 7.480138
RightHand -5.468717 0.000000 0.415721
RightHandThumb1 -24.326973 -0.000000 -32.862282
LeftUpLeg -3.461381 9.463476 -0.658901
LeftLeg -6.491855 -0.000000 0.000000
LeftFoot -19.026942 26.163122 -12.685231
LeftToeBase 26.260565 -0.000000 -0.000000
RightUpLeg -4.088532 -5.979486 0.607650
RightLeg -3.274016 -0.000000 0.000000
RightFoot -20.167685 -25.347116 14.807891
RightToeBase 23.656598 -0.000000 -0.000000
1048
root 19.860006 35.623221 -21.420653 -169.146399 -0.792827 -179.246379
Spine -20.244523 -0.523358 0.483399
Head 8.817736 -1.561441 1.698111
LeftShoulder -13.991545 -30.169226 19.236129
LeftArm -3.467487 -0.553800 -9.460814
LeftForeArm 14.081215 -0.000000 -1.823969
LeftHand -3.511412 -0.000000 -1.606581
LeftHandThumb1 -26.253704 0.000000 33.147579
RightShoulder -12.286803 -3.827687 -7.413000
RightArm -0.685388 42.663045 14.527970
RightForeArm -36.184106 -0.000000 7.464363
RightHand -5.439147 0.000000 0.282431
RightHandThumb1 -24.326973 -0.000000 -32.862282
LeftUpLeg -3.438329 9.463566 -0.655871
LeftLeg -6.495384 -0.000000 0.000000
LeftFoot -19.041913 26.177438 -12.680350
LeftToeBase 26.261616 -0.000000 -0.000000
RightUpLeg -4.073719 -5.962455 0.602303
RightLeg -3.276702 -0.000000 0.000000
RightFoot -20.168297 -25.374801 14.805867
RightToeBase 23.666544 -0.000000 -0.000000
